<mxfile host="Electron" agent="Mozilla/5.0 (Windows NT 10.0; Win64; x64) AppleWebKit/537.36 (KHTML, like Gecko) draw.io/26.0.4 Chrome/128.0.6613.186 Electron/32.2.5 Safari/537.36" version="26.0.4">
  <diagram id="C5RBs43oDa-KdzZeNtuy" name="Page-1">
    <mxGraphModel dx="3088" dy="836" grid="1" gridSize="10" guides="1" tooltips="1" connect="1" arrows="1" fold="1" page="1" pageScale="1" pageWidth="827" pageHeight="1169" math="0" shadow="0">
      <root>
        <mxCell id="WIyWlLk6GJQsqaUBKTNV-0" />
        <mxCell id="WIyWlLk6GJQsqaUBKTNV-1" parent="WIyWlLk6GJQsqaUBKTNV-0" />
        <mxCell id="V5XkKpPskYb6ydSUWr3m-4" value="" style="edgeStyle=orthogonalEdgeStyle;rounded=0;orthogonalLoop=1;jettySize=auto;html=1;" parent="WIyWlLk6GJQsqaUBKTNV-1" source="V5XkKpPskYb6ydSUWr3m-0" target="V5XkKpPskYb6ydSUWr3m-3" edge="1">
          <mxGeometry relative="1" as="geometry" />
        </mxCell>
        <mxCell id="V5XkKpPskYb6ydSUWr3m-0" value="start" style="strokeWidth=2;html=1;shape=mxgraph.flowchart.terminator;whiteSpace=wrap;" parent="WIyWlLk6GJQsqaUBKTNV-1" vertex="1">
          <mxGeometry x="320" y="50" width="140" height="60" as="geometry" />
        </mxCell>
        <mxCell id="V5XkKpPskYb6ydSUWr3m-3" value="enter the welcome page" style="whiteSpace=wrap;html=1;strokeWidth=2;" parent="WIyWlLk6GJQsqaUBKTNV-1" vertex="1">
          <mxGeometry x="330" y="190" width="120" height="60" as="geometry" />
        </mxCell>
        <mxCell id="V5XkKpPskYb6ydSUWr3m-7" style="edgeStyle=orthogonalEdgeStyle;rounded=0;orthogonalLoop=1;jettySize=auto;html=1;entryX=0;entryY=0.5;entryDx=0;entryDy=0;" parent="WIyWlLk6GJQsqaUBKTNV-1" source="V5XkKpPskYb6ydSUWr3m-5" target="V5XkKpPskYb6ydSUWr3m-17" edge="1">
          <mxGeometry relative="1" as="geometry">
            <mxPoint x="680" y="350" as="targetPoint" />
          </mxGeometry>
        </mxCell>
        <mxCell id="V5XkKpPskYb6ydSUWr3m-9" value="yes" style="edgeLabel;html=1;align=center;verticalAlign=middle;resizable=0;points=[];" parent="V5XkKpPskYb6ydSUWr3m-7" vertex="1" connectable="0">
          <mxGeometry x="-0.7339" y="3" relative="1" as="geometry">
            <mxPoint as="offset" />
          </mxGeometry>
        </mxCell>
        <mxCell id="V5XkKpPskYb6ydSUWr3m-8" style="edgeStyle=orthogonalEdgeStyle;rounded=0;orthogonalLoop=1;jettySize=auto;html=1;exitX=0;exitY=0.5;exitDx=0;exitDy=0;exitPerimeter=0;entryX=1;entryY=0.5;entryDx=0;entryDy=0;" parent="WIyWlLk6GJQsqaUBKTNV-1" source="V5XkKpPskYb6ydSUWr3m-5" target="V5XkKpPskYb6ydSUWr3m-11" edge="1">
          <mxGeometry relative="1" as="geometry">
            <mxPoint x="120" y="350" as="targetPoint" />
          </mxGeometry>
        </mxCell>
        <mxCell id="V5XkKpPskYb6ydSUWr3m-10" value="no" style="edgeLabel;html=1;align=center;verticalAlign=middle;resizable=0;points=[];" parent="V5XkKpPskYb6ydSUWr3m-8" vertex="1" connectable="0">
          <mxGeometry x="-0.5547" relative="1" as="geometry">
            <mxPoint as="offset" />
          </mxGeometry>
        </mxCell>
        <mxCell id="V5XkKpPskYb6ydSUWr3m-5" value="user have&amp;nbsp;&lt;div&gt;acount&lt;/div&gt;" style="strokeWidth=2;html=1;shape=mxgraph.flowchart.decision;whiteSpace=wrap;" parent="WIyWlLk6GJQsqaUBKTNV-1" vertex="1">
          <mxGeometry x="340" y="300" width="100" height="100" as="geometry" />
        </mxCell>
        <mxCell id="V5XkKpPskYb6ydSUWr3m-6" style="edgeStyle=orthogonalEdgeStyle;rounded=0;orthogonalLoop=1;jettySize=auto;html=1;entryX=0.5;entryY=0;entryDx=0;entryDy=0;entryPerimeter=0;" parent="WIyWlLk6GJQsqaUBKTNV-1" source="V5XkKpPskYb6ydSUWr3m-3" target="V5XkKpPskYb6ydSUWr3m-5" edge="1">
          <mxGeometry relative="1" as="geometry" />
        </mxCell>
        <mxCell id="V5XkKpPskYb6ydSUWr3m-13" value="" style="edgeStyle=orthogonalEdgeStyle;rounded=0;orthogonalLoop=1;jettySize=auto;html=1;" parent="WIyWlLk6GJQsqaUBKTNV-1" source="V5XkKpPskYb6ydSUWr3m-11" target="V5XkKpPskYb6ydSUWr3m-12" edge="1">
          <mxGeometry relative="1" as="geometry" />
        </mxCell>
        <mxCell id="V5XkKpPskYb6ydSUWr3m-11" value="sign up" style="shape=parallelogram;html=1;strokeWidth=2;perimeter=parallelogramPerimeter;whiteSpace=wrap;rounded=1;arcSize=12;size=0.23;" parent="WIyWlLk6GJQsqaUBKTNV-1" vertex="1">
          <mxGeometry x="30" y="320" width="100" height="60" as="geometry" />
        </mxCell>
        <mxCell id="V5XkKpPskYb6ydSUWr3m-14" style="edgeStyle=orthogonalEdgeStyle;rounded=0;orthogonalLoop=1;jettySize=auto;html=1;entryX=0;entryY=0.5;entryDx=0;entryDy=0;" parent="WIyWlLk6GJQsqaUBKTNV-1" source="V5XkKpPskYb6ydSUWr3m-12" target="V5XkKpPskYb6ydSUWr3m-11" edge="1">
          <mxGeometry relative="1" as="geometry">
            <Array as="points">
              <mxPoint x="-20" y="490" />
              <mxPoint x="-20" y="350" />
            </Array>
          </mxGeometry>
        </mxCell>
        <mxCell id="V5XkKpPskYb6ydSUWr3m-16" value="no" style="edgeLabel;html=1;align=center;verticalAlign=middle;resizable=0;points=[];" parent="V5XkKpPskYb6ydSUWr3m-14" vertex="1" connectable="0">
          <mxGeometry x="-0.006" y="-2" relative="1" as="geometry">
            <mxPoint as="offset" />
          </mxGeometry>
        </mxCell>
        <mxCell id="V5XkKpPskYb6ydSUWr3m-24" style="edgeStyle=orthogonalEdgeStyle;rounded=0;orthogonalLoop=1;jettySize=auto;html=1;exitX=1;exitY=0.5;exitDx=0;exitDy=0;entryX=0;entryY=0.5;entryDx=0;entryDy=0;" parent="WIyWlLk6GJQsqaUBKTNV-1" source="V5XkKpPskYb6ydSUWr3m-12" target="V5XkKpPskYb6ydSUWr3m-22" edge="1">
          <mxGeometry relative="1" as="geometry" />
        </mxCell>
        <mxCell id="V5XkKpPskYb6ydSUWr3m-25" value="yes" style="edgeLabel;html=1;align=center;verticalAlign=middle;resizable=0;points=[];" parent="V5XkKpPskYb6ydSUWr3m-24" vertex="1" connectable="0">
          <mxGeometry x="0.2435" y="-3" relative="1" as="geometry">
            <mxPoint as="offset" />
          </mxGeometry>
        </mxCell>
        <mxCell id="V5XkKpPskYb6ydSUWr3m-12" value="new account created?" style="rhombus;whiteSpace=wrap;html=1;strokeWidth=2;rounded=1;arcSize=12;" parent="WIyWlLk6GJQsqaUBKTNV-1" vertex="1">
          <mxGeometry x="30" y="450" width="100" height="80" as="geometry" />
        </mxCell>
        <mxCell id="V5XkKpPskYb6ydSUWr3m-19" value="" style="edgeStyle=orthogonalEdgeStyle;rounded=0;orthogonalLoop=1;jettySize=auto;html=1;" parent="WIyWlLk6GJQsqaUBKTNV-1" source="V5XkKpPskYb6ydSUWr3m-17" target="V5XkKpPskYb6ydSUWr3m-18" edge="1">
          <mxGeometry relative="1" as="geometry" />
        </mxCell>
        <mxCell id="V5XkKpPskYb6ydSUWr3m-17" value="sign in" style="shape=parallelogram;html=1;strokeWidth=2;perimeter=parallelogramPerimeter;whiteSpace=wrap;rounded=1;arcSize=12;size=0.23;" parent="WIyWlLk6GJQsqaUBKTNV-1" vertex="1">
          <mxGeometry x="670" y="320" width="100" height="60" as="geometry" />
        </mxCell>
        <mxCell id="V5XkKpPskYb6ydSUWr3m-20" style="edgeStyle=orthogonalEdgeStyle;rounded=0;orthogonalLoop=1;jettySize=auto;html=1;entryX=1;entryY=0.5;entryDx=0;entryDy=0;" parent="WIyWlLk6GJQsqaUBKTNV-1" source="V5XkKpPskYb6ydSUWr3m-18" target="V5XkKpPskYb6ydSUWr3m-17" edge="1">
          <mxGeometry relative="1" as="geometry">
            <Array as="points">
              <mxPoint x="830" y="490" />
              <mxPoint x="830" y="350" />
            </Array>
          </mxGeometry>
        </mxCell>
        <mxCell id="V5XkKpPskYb6ydSUWr3m-21" value="no" style="edgeLabel;html=1;align=center;verticalAlign=middle;resizable=0;points=[];" parent="V5XkKpPskYb6ydSUWr3m-20" vertex="1" connectable="0">
          <mxGeometry x="0.0387" y="2" relative="1" as="geometry">
            <mxPoint as="offset" />
          </mxGeometry>
        </mxCell>
        <mxCell id="V5XkKpPskYb6ydSUWr3m-23" value="" style="edgeStyle=orthogonalEdgeStyle;rounded=0;orthogonalLoop=1;jettySize=auto;html=1;" parent="WIyWlLk6GJQsqaUBKTNV-1" source="V5XkKpPskYb6ydSUWr3m-18" target="V5XkKpPskYb6ydSUWr3m-22" edge="1">
          <mxGeometry relative="1" as="geometry" />
        </mxCell>
        <mxCell id="V5XkKpPskYb6ydSUWr3m-18" value="correct credentials" style="rhombus;whiteSpace=wrap;html=1;strokeWidth=2;rounded=1;arcSize=12;" parent="WIyWlLk6GJQsqaUBKTNV-1" vertex="1">
          <mxGeometry x="670" y="450" width="100" height="80" as="geometry" />
        </mxCell>
        <mxCell id="V5XkKpPskYb6ydSUWr3m-69" style="edgeStyle=orthogonalEdgeStyle;rounded=0;orthogonalLoop=1;jettySize=auto;html=1;entryX=0.5;entryY=0;entryDx=0;entryDy=0;exitX=1;exitY=0.5;exitDx=0;exitDy=0;" parent="WIyWlLk6GJQsqaUBKTNV-1" source="V5XkKpPskYb6ydSUWr3m-73" target="V5XkKpPskYb6ydSUWr3m-70" edge="1">
          <mxGeometry relative="1" as="geometry">
            <mxPoint x="290" y="840" as="targetPoint" />
            <mxPoint x="450" y="620" as="sourcePoint" />
            <Array as="points">
              <mxPoint x="430" y="800" />
              <mxPoint x="290" y="800" />
            </Array>
          </mxGeometry>
        </mxCell>
        <mxCell id="V5XkKpPskYb6ydSUWr3m-74" value="" style="edgeStyle=orthogonalEdgeStyle;rounded=0;orthogonalLoop=1;jettySize=auto;html=1;" parent="WIyWlLk6GJQsqaUBKTNV-1" source="V5XkKpPskYb6ydSUWr3m-22" target="V5XkKpPskYb6ydSUWr3m-73" edge="1">
          <mxGeometry relative="1" as="geometry" />
        </mxCell>
        <mxCell id="V5XkKpPskYb6ydSUWr3m-22" value="enter home page" style="whiteSpace=wrap;html=1;strokeWidth=2;rounded=1;arcSize=12;" parent="WIyWlLk6GJQsqaUBKTNV-1" vertex="1">
          <mxGeometry x="330" y="490" width="120" height="60" as="geometry" />
        </mxCell>
        <mxCell id="V5XkKpPskYb6ydSUWr3m-26" value="yes" style="text;html=1;align=center;verticalAlign=middle;resizable=0;points=[];autosize=1;strokeColor=none;fillColor=none;" parent="WIyWlLk6GJQsqaUBKTNV-1" vertex="1">
          <mxGeometry x="490" y="498" width="40" height="30" as="geometry" />
        </mxCell>
        <mxCell id="V5XkKpPskYb6ydSUWr3m-67" style="edgeStyle=orthogonalEdgeStyle;rounded=0;orthogonalLoop=1;jettySize=auto;html=1;entryX=0.5;entryY=0;entryDx=0;entryDy=0;" parent="WIyWlLk6GJQsqaUBKTNV-1" source="V5XkKpPskYb6ydSUWr3m-27" target="V5XkKpPskYb6ydSUWr3m-39" edge="1">
          <mxGeometry relative="1" as="geometry" />
        </mxCell>
        <mxCell id="V5XkKpPskYb6ydSUWr3m-27" value="display based on&lt;div&gt;&amp;nbsp;tast trips&lt;/div&gt;" style="shape=parallelogram;perimeter=parallelogramPerimeter;whiteSpace=wrap;html=1;fixedSize=1;strokeWidth=2;rounded=1;arcSize=12;" parent="WIyWlLk6GJQsqaUBKTNV-1" vertex="1">
          <mxGeometry x="640" y="710" width="160" height="60" as="geometry" />
        </mxCell>
        <mxCell id="V5XkKpPskYb6ydSUWr3m-68" style="edgeStyle=orthogonalEdgeStyle;rounded=0;orthogonalLoop=1;jettySize=auto;html=1;entryX=0.5;entryY=0;entryDx=0;entryDy=0;" parent="WIyWlLk6GJQsqaUBKTNV-1" source="V5XkKpPskYb6ydSUWr3m-31" target="V5XkKpPskYb6ydSUWr3m-39" edge="1">
          <mxGeometry relative="1" as="geometry" />
        </mxCell>
        <mxCell id="V5XkKpPskYb6ydSUWr3m-31" value="display all the trips with&lt;div&gt;&amp;nbsp;the fillter&lt;/div&gt;" style="shape=parallelogram;perimeter=parallelogramPerimeter;whiteSpace=wrap;html=1;fixedSize=1;strokeWidth=2;rounded=1;arcSize=12;" parent="WIyWlLk6GJQsqaUBKTNV-1" vertex="1">
          <mxGeometry x="440" y="710" width="160" height="60" as="geometry" />
        </mxCell>
        <mxCell id="V5XkKpPskYb6ydSUWr3m-92" value="" style="edgeStyle=orthogonalEdgeStyle;rounded=0;orthogonalLoop=1;jettySize=auto;html=1;" parent="WIyWlLk6GJQsqaUBKTNV-1" source="V5XkKpPskYb6ydSUWr3m-34" target="V5XkKpPskYb6ydSUWr3m-91" edge="1">
          <mxGeometry relative="1" as="geometry" />
        </mxCell>
        <mxCell id="V5XkKpPskYb6ydSUWr3m-34" value="display the dash bord&lt;div&gt;&amp;nbsp;button&lt;/div&gt;" style="shape=parallelogram;perimeter=parallelogramPerimeter;whiteSpace=wrap;html=1;fixedSize=1;strokeWidth=2;rounded=1;arcSize=12;" parent="WIyWlLk6GJQsqaUBKTNV-1" vertex="1">
          <mxGeometry x="-130" y="710" width="160" height="60" as="geometry" />
        </mxCell>
        <mxCell id="V5XkKpPskYb6ydSUWr3m-43" value="" style="edgeStyle=orthogonalEdgeStyle;rounded=0;orthogonalLoop=1;jettySize=auto;html=1;" parent="WIyWlLk6GJQsqaUBKTNV-1" source="V5XkKpPskYb6ydSUWr3m-39" target="V5XkKpPskYb6ydSUWr3m-42" edge="1">
          <mxGeometry relative="1" as="geometry" />
        </mxCell>
        <mxCell id="V5XkKpPskYb6ydSUWr3m-39" value="chose a trip" style="shape=parallelogram;perimeter=parallelogramPerimeter;whiteSpace=wrap;html=1;fixedSize=1;strokeWidth=2;rounded=1;arcSize=12;" parent="WIyWlLk6GJQsqaUBKTNV-1" vertex="1">
          <mxGeometry x="565" y="890" width="160" height="60" as="geometry" />
        </mxCell>
        <mxCell id="V5XkKpPskYb6ydSUWr3m-44" style="edgeStyle=orthogonalEdgeStyle;rounded=0;orthogonalLoop=1;jettySize=auto;html=1;" parent="WIyWlLk6GJQsqaUBKTNV-1" source="V5XkKpPskYb6ydSUWr3m-42" target="V5XkKpPskYb6ydSUWr3m-22" edge="1">
          <mxGeometry relative="1" as="geometry">
            <Array as="points">
              <mxPoint x="930" y="1150" />
              <mxPoint x="930" y="580" />
              <mxPoint x="450" y="580" />
            </Array>
          </mxGeometry>
        </mxCell>
        <mxCell id="V5XkKpPskYb6ydSUWr3m-45" value="no" style="edgeLabel;html=1;align=center;verticalAlign=middle;resizable=0;points=[];" parent="V5XkKpPskYb6ydSUWr3m-44" vertex="1" connectable="0">
          <mxGeometry x="-0.9278" y="-2" relative="1" as="geometry">
            <mxPoint as="offset" />
          </mxGeometry>
        </mxCell>
        <mxCell id="V5XkKpPskYb6ydSUWr3m-46" style="edgeStyle=orthogonalEdgeStyle;rounded=0;orthogonalLoop=1;jettySize=auto;html=1;exitX=0.5;exitY=1;exitDx=0;exitDy=0;entryX=0.5;entryY=0;entryDx=0;entryDy=0;" parent="WIyWlLk6GJQsqaUBKTNV-1" source="V5XkKpPskYb6ydSUWr3m-42" target="V5XkKpPskYb6ydSUWr3m-47" edge="1">
          <mxGeometry relative="1" as="geometry">
            <mxPoint x="295" y="1060" as="targetPoint" />
          </mxGeometry>
        </mxCell>
        <mxCell id="V5XkKpPskYb6ydSUWr3m-48" value="yes" style="edgeLabel;html=1;align=center;verticalAlign=middle;resizable=0;points=[];" parent="V5XkKpPskYb6ydSUWr3m-46" vertex="1" connectable="0">
          <mxGeometry x="-0.88" y="-1" relative="1" as="geometry">
            <mxPoint as="offset" />
          </mxGeometry>
        </mxCell>
        <mxCell id="V5XkKpPskYb6ydSUWr3m-42" value="add trip?" style="rhombus;whiteSpace=wrap;html=1;strokeWidth=2;rounded=1;arcSize=12;" parent="WIyWlLk6GJQsqaUBKTNV-1" vertex="1">
          <mxGeometry x="605" y="1020" width="80" height="80" as="geometry" />
        </mxCell>
        <mxCell id="V5XkKpPskYb6ydSUWr3m-50" value="" style="edgeStyle=orthogonalEdgeStyle;rounded=0;orthogonalLoop=1;jettySize=auto;html=1;" parent="WIyWlLk6GJQsqaUBKTNV-1" source="V5XkKpPskYb6ydSUWr3m-47" target="V5XkKpPskYb6ydSUWr3m-49" edge="1">
          <mxGeometry relative="1" as="geometry" />
        </mxCell>
        <mxCell id="V5XkKpPskYb6ydSUWr3m-47" value="display add new trip information" style="shape=parallelogram;perimeter=parallelogramPerimeter;whiteSpace=wrap;html=1;fixedSize=1;strokeWidth=2;rounded=1;arcSize=12;" parent="WIyWlLk6GJQsqaUBKTNV-1" vertex="1">
          <mxGeometry x="565" y="1240" width="160" height="60" as="geometry" />
        </mxCell>
        <mxCell id="V5XkKpPskYb6ydSUWr3m-51" style="edgeStyle=orthogonalEdgeStyle;rounded=0;orthogonalLoop=1;jettySize=auto;html=1;entryX=0;entryY=0.5;entryDx=0;entryDy=0;" parent="WIyWlLk6GJQsqaUBKTNV-1" source="V5XkKpPskYb6ydSUWr3m-49" target="V5XkKpPskYb6ydSUWr3m-39" edge="1">
          <mxGeometry relative="1" as="geometry">
            <Array as="points">
              <mxPoint x="405" y="920" />
            </Array>
          </mxGeometry>
        </mxCell>
        <mxCell id="V5XkKpPskYb6ydSUWr3m-52" value="no" style="edgeLabel;html=1;align=center;verticalAlign=middle;resizable=0;points=[];" parent="V5XkKpPskYb6ydSUWr3m-51" vertex="1" connectable="0">
          <mxGeometry x="-0.8208" y="-3" relative="1" as="geometry">
            <mxPoint as="offset" />
          </mxGeometry>
        </mxCell>
        <mxCell id="V5XkKpPskYb6ydSUWr3m-54" value="" style="edgeStyle=orthogonalEdgeStyle;rounded=0;orthogonalLoop=1;jettySize=auto;html=1;" parent="WIyWlLk6GJQsqaUBKTNV-1" source="V5XkKpPskYb6ydSUWr3m-49" target="V5XkKpPskYb6ydSUWr3m-53" edge="1">
          <mxGeometry relative="1" as="geometry" />
        </mxCell>
        <mxCell id="V5XkKpPskYb6ydSUWr3m-55" value="yes" style="edgeLabel;html=1;align=center;verticalAlign=middle;resizable=0;points=[];" parent="V5XkKpPskYb6ydSUWr3m-54" vertex="1" connectable="0">
          <mxGeometry x="-0.5778" y="-3" relative="1" as="geometry">
            <mxPoint as="offset" />
          </mxGeometry>
        </mxCell>
        <mxCell id="V5XkKpPskYb6ydSUWr3m-49" value="create trip" style="rhombus;whiteSpace=wrap;html=1;strokeWidth=2;rounded=1;arcSize=12;" parent="WIyWlLk6GJQsqaUBKTNV-1" vertex="1">
          <mxGeometry x="365" y="1230" width="80" height="80" as="geometry" />
        </mxCell>
        <mxCell id="V5XkKpPskYb6ydSUWr3m-56" style="edgeStyle=orthogonalEdgeStyle;rounded=0;orthogonalLoop=1;jettySize=auto;html=1;entryX=0.5;entryY=0;entryDx=0;entryDy=0;" parent="WIyWlLk6GJQsqaUBKTNV-1" source="V5XkKpPskYb6ydSUWr3m-53" target="V5XkKpPskYb6ydSUWr3m-57" edge="1">
          <mxGeometry relative="1" as="geometry">
            <mxPoint x="405" y="1590" as="targetPoint" />
          </mxGeometry>
        </mxCell>
        <mxCell id="V5XkKpPskYb6ydSUWr3m-53" value="display the tip on the trips menu" style="shape=parallelogram;perimeter=parallelogramPerimeter;whiteSpace=wrap;html=1;fixedSize=1;strokeWidth=2;rounded=1;arcSize=12;" parent="WIyWlLk6GJQsqaUBKTNV-1" vertex="1">
          <mxGeometry x="320" y="1400" width="170" height="60" as="geometry" />
        </mxCell>
        <mxCell id="V5XkKpPskYb6ydSUWr3m-59" value="" style="edgeStyle=orthogonalEdgeStyle;rounded=0;orthogonalLoop=1;jettySize=auto;html=1;" parent="WIyWlLk6GJQsqaUBKTNV-1" source="V5XkKpPskYb6ydSUWr3m-57" target="V5XkKpPskYb6ydSUWr3m-58" edge="1">
          <mxGeometry relative="1" as="geometry" />
        </mxCell>
        <mxCell id="V5XkKpPskYb6ydSUWr3m-57" value="chose a trip" style="shape=parallelogram;perimeter=parallelogramPerimeter;whiteSpace=wrap;html=1;fixedSize=1;strokeWidth=2;rounded=1;arcSize=12;" parent="WIyWlLk6GJQsqaUBKTNV-1" vertex="1">
          <mxGeometry x="320" y="1600" width="170" height="60" as="geometry" />
        </mxCell>
        <mxCell id="V5XkKpPskYb6ydSUWr3m-61" value="" style="edgeStyle=orthogonalEdgeStyle;rounded=0;orthogonalLoop=1;jettySize=auto;html=1;" parent="WIyWlLk6GJQsqaUBKTNV-1" source="V5XkKpPskYb6ydSUWr3m-58" target="V5XkKpPskYb6ydSUWr3m-60" edge="1">
          <mxGeometry relative="1" as="geometry" />
        </mxCell>
        <mxCell id="V5XkKpPskYb6ydSUWr3m-58" value="display my trip information" style="shape=parallelogram;perimeter=parallelogramPerimeter;whiteSpace=wrap;html=1;fixedSize=1;strokeWidth=2;rounded=1;arcSize=12;" parent="WIyWlLk6GJQsqaUBKTNV-1" vertex="1">
          <mxGeometry x="320" y="1740" width="170" height="60" as="geometry" />
        </mxCell>
        <mxCell id="V5XkKpPskYb6ydSUWr3m-62" style="edgeStyle=orthogonalEdgeStyle;rounded=0;orthogonalLoop=1;jettySize=auto;html=1;" parent="WIyWlLk6GJQsqaUBKTNV-1" source="V5XkKpPskYb6ydSUWr3m-60" target="V5XkKpPskYb6ydSUWr3m-63" edge="1">
          <mxGeometry relative="1" as="geometry">
            <mxPoint x="655" y="1910" as="targetPoint" />
          </mxGeometry>
        </mxCell>
        <mxCell id="V5XkKpPskYb6ydSUWr3m-64" value="yes" style="edgeLabel;html=1;align=center;verticalAlign=middle;resizable=0;points=[];" parent="V5XkKpPskYb6ydSUWr3m-62" vertex="1" connectable="0">
          <mxGeometry x="-0.7906" relative="1" as="geometry">
            <mxPoint as="offset" />
          </mxGeometry>
        </mxCell>
        <mxCell id="V5XkKpPskYb6ydSUWr3m-65" style="edgeStyle=orthogonalEdgeStyle;rounded=0;orthogonalLoop=1;jettySize=auto;html=1;exitX=0;exitY=0.5;exitDx=0;exitDy=0;" parent="WIyWlLk6GJQsqaUBKTNV-1" source="V5XkKpPskYb6ydSUWr3m-60" edge="1">
          <mxGeometry relative="1" as="geometry">
            <mxPoint x="330" y="1430" as="targetPoint" />
            <Array as="points">
              <mxPoint x="210" y="1910" />
              <mxPoint x="210" y="1430" />
            </Array>
          </mxGeometry>
        </mxCell>
        <mxCell id="V5XkKpPskYb6ydSUWr3m-66" value="no" style="edgeLabel;html=1;align=center;verticalAlign=middle;resizable=0;points=[];" parent="V5XkKpPskYb6ydSUWr3m-65" vertex="1" connectable="0">
          <mxGeometry x="-0.8964" y="1" relative="1" as="geometry">
            <mxPoint as="offset" />
          </mxGeometry>
        </mxCell>
        <mxCell id="V5XkKpPskYb6ydSUWr3m-60" value="cancel trip" style="rhombus;whiteSpace=wrap;html=1;strokeWidth=2;rounded=1;arcSize=12;" parent="WIyWlLk6GJQsqaUBKTNV-1" vertex="1">
          <mxGeometry x="365" y="1870" width="80" height="80" as="geometry" />
        </mxCell>
        <mxCell id="V5XkKpPskYb6ydSUWr3m-63" value="dealet the trip from&amp;nbsp;&lt;div&gt;trips menu&lt;/div&gt;" style="shape=parallelogram;perimeter=parallelogramPerimeter;whiteSpace=wrap;html=1;fixedSize=1;strokeWidth=2;rounded=1;arcSize=12;" parent="WIyWlLk6GJQsqaUBKTNV-1" vertex="1">
          <mxGeometry x="685" y="1880" width="170" height="60" as="geometry" />
        </mxCell>
        <mxCell id="V5XkKpPskYb6ydSUWr3m-81" value="" style="edgeStyle=orthogonalEdgeStyle;rounded=0;orthogonalLoop=1;jettySize=auto;html=1;" parent="WIyWlLk6GJQsqaUBKTNV-1" source="V5XkKpPskYb6ydSUWr3m-70" target="V5XkKpPskYb6ydSUWr3m-80" edge="1">
          <mxGeometry relative="1" as="geometry" />
        </mxCell>
        <mxCell id="V5XkKpPskYb6ydSUWr3m-70" value="display navigation bar" style="shape=parallelogram;perimeter=parallelogramPerimeter;whiteSpace=wrap;html=1;fixedSize=1;strokeWidth=2;rounded=1;arcSize=12;" parent="WIyWlLk6GJQsqaUBKTNV-1" vertex="1">
          <mxGeometry x="210" y="850" width="160" height="60" as="geometry" />
        </mxCell>
        <mxCell id="V5XkKpPskYb6ydSUWr3m-75" style="edgeStyle=orthogonalEdgeStyle;rounded=0;orthogonalLoop=1;jettySize=auto;html=1;entryX=0.5;entryY=0;entryDx=0;entryDy=0;" parent="WIyWlLk6GJQsqaUBKTNV-1" source="V5XkKpPskYb6ydSUWr3m-73" target="V5XkKpPskYb6ydSUWr3m-34" edge="1">
          <mxGeometry relative="1" as="geometry" />
        </mxCell>
        <mxCell id="V5XkKpPskYb6ydSUWr3m-76" value="yes" style="edgeLabel;html=1;align=center;verticalAlign=middle;resizable=0;points=[];" parent="V5XkKpPskYb6ydSUWr3m-75" vertex="1" connectable="0">
          <mxGeometry x="-0.7513" y="3" relative="1" as="geometry">
            <mxPoint as="offset" />
          </mxGeometry>
        </mxCell>
        <mxCell id="V5XkKpPskYb6ydSUWr3m-77" style="edgeStyle=orthogonalEdgeStyle;rounded=0;orthogonalLoop=1;jettySize=auto;html=1;" parent="WIyWlLk6GJQsqaUBKTNV-1" source="V5XkKpPskYb6ydSUWr3m-73" target="V5XkKpPskYb6ydSUWr3m-27" edge="1">
          <mxGeometry relative="1" as="geometry" />
        </mxCell>
        <mxCell id="V5XkKpPskYb6ydSUWr3m-78" style="edgeStyle=orthogonalEdgeStyle;rounded=0;orthogonalLoop=1;jettySize=auto;html=1;" parent="WIyWlLk6GJQsqaUBKTNV-1" source="V5XkKpPskYb6ydSUWr3m-73" target="V5XkKpPskYb6ydSUWr3m-31" edge="1">
          <mxGeometry relative="1" as="geometry" />
        </mxCell>
        <mxCell id="V5XkKpPskYb6ydSUWr3m-79" value="no" style="edgeLabel;html=1;align=center;verticalAlign=middle;resizable=0;points=[];" parent="V5XkKpPskYb6ydSUWr3m-78" vertex="1" connectable="0">
          <mxGeometry x="-0.8286" y="-4" relative="1" as="geometry">
            <mxPoint as="offset" />
          </mxGeometry>
        </mxCell>
        <mxCell id="V5XkKpPskYb6ydSUWr3m-73" value="if admin" style="rhombus;whiteSpace=wrap;html=1;strokeWidth=2;rounded=1;arcSize=12;" parent="WIyWlLk6GJQsqaUBKTNV-1" vertex="1">
          <mxGeometry x="350" y="585" width="80" height="80" as="geometry" />
        </mxCell>
        <mxCell id="V5XkKpPskYb6ydSUWr3m-83" value="" style="edgeStyle=orthogonalEdgeStyle;rounded=0;orthogonalLoop=1;jettySize=auto;html=1;" parent="WIyWlLk6GJQsqaUBKTNV-1" source="V5XkKpPskYb6ydSUWr3m-80" target="V5XkKpPskYb6ydSUWr3m-82" edge="1">
          <mxGeometry relative="1" as="geometry">
            <Array as="points">
              <mxPoint x="80" y="1090" />
              <mxPoint x="280" y="1090" />
            </Array>
          </mxGeometry>
        </mxCell>
        <mxCell id="V5XkKpPskYb6ydSUWr3m-85" value="" style="edgeStyle=orthogonalEdgeStyle;rounded=0;orthogonalLoop=1;jettySize=auto;html=1;" parent="WIyWlLk6GJQsqaUBKTNV-1" source="V5XkKpPskYb6ydSUWr3m-80" target="V5XkKpPskYb6ydSUWr3m-84" edge="1">
          <mxGeometry relative="1" as="geometry" />
        </mxCell>
        <mxCell id="V5XkKpPskYb6ydSUWr3m-86" value="" style="edgeStyle=orthogonalEdgeStyle;rounded=0;orthogonalLoop=1;jettySize=auto;html=1;" parent="WIyWlLk6GJQsqaUBKTNV-1" source="V5XkKpPskYb6ydSUWr3m-80" target="V5XkKpPskYb6ydSUWr3m-84" edge="1">
          <mxGeometry relative="1" as="geometry" />
        </mxCell>
        <mxCell id="V5XkKpPskYb6ydSUWr3m-88" value="" style="edgeStyle=orthogonalEdgeStyle;rounded=0;orthogonalLoop=1;jettySize=auto;html=1;" parent="WIyWlLk6GJQsqaUBKTNV-1" source="V5XkKpPskYb6ydSUWr3m-80" target="V5XkKpPskYb6ydSUWr3m-87" edge="1">
          <mxGeometry relative="1" as="geometry" />
        </mxCell>
        <mxCell id="V5XkKpPskYb6ydSUWr3m-89" style="edgeStyle=orthogonalEdgeStyle;rounded=0;orthogonalLoop=1;jettySize=auto;html=1;entryX=0.5;entryY=0;entryDx=0;entryDy=0;" parent="WIyWlLk6GJQsqaUBKTNV-1" source="V5XkKpPskYb6ydSUWr3m-80" target="V5XkKpPskYb6ydSUWr3m-90" edge="1">
          <mxGeometry relative="1" as="geometry">
            <mxPoint x="-310" y="1290" as="targetPoint" />
          </mxGeometry>
        </mxCell>
        <mxCell id="V5XkKpPskYb6ydSUWr3m-80" value="chose profile" style="shape=parallelogram;perimeter=parallelogramPerimeter;whiteSpace=wrap;html=1;fixedSize=1;strokeWidth=2;rounded=1;arcSize=12;" parent="WIyWlLk6GJQsqaUBKTNV-1" vertex="1">
          <mxGeometry y="990" width="160" height="60" as="geometry" />
        </mxCell>
        <mxCell id="V5XkKpPskYb6ydSUWr3m-82" value="display favorit" style="shape=parallelogram;perimeter=parallelogramPerimeter;whiteSpace=wrap;html=1;fixedSize=1;strokeWidth=2;rounded=1;arcSize=12;" parent="WIyWlLk6GJQsqaUBKTNV-1" vertex="1">
          <mxGeometry x="200" y="1130" width="160" height="60" as="geometry" />
        </mxCell>
        <mxCell id="V5XkKpPskYb6ydSUWr3m-84" value="display points" style="shape=parallelogram;perimeter=parallelogramPerimeter;whiteSpace=wrap;html=1;fixedSize=1;strokeWidth=2;rounded=1;arcSize=12;" parent="WIyWlLk6GJQsqaUBKTNV-1" vertex="1">
          <mxGeometry x="-160" y="1130" width="160" height="60" as="geometry" />
        </mxCell>
        <mxCell id="V5XkKpPskYb6ydSUWr3m-87" value="display rewards" style="shape=parallelogram;perimeter=parallelogramPerimeter;whiteSpace=wrap;html=1;fixedSize=1;strokeWidth=2;rounded=1;arcSize=12;" parent="WIyWlLk6GJQsqaUBKTNV-1" vertex="1">
          <mxGeometry y="1130" width="160" height="60" as="geometry" />
        </mxCell>
        <mxCell id="V5XkKpPskYb6ydSUWr3m-90" value="display information to edite profile" style="shape=parallelogram;perimeter=parallelogramPerimeter;whiteSpace=wrap;html=1;fixedSize=1;strokeWidth=2;rounded=1;arcSize=12;" parent="WIyWlLk6GJQsqaUBKTNV-1" vertex="1">
          <mxGeometry x="-330" y="1130" width="160" height="60" as="geometry" />
        </mxCell>
        <mxCell id="V5XkKpPskYb6ydSUWr3m-93" style="edgeStyle=orthogonalEdgeStyle;rounded=0;orthogonalLoop=1;jettySize=auto;html=1;entryX=0;entryY=1;entryDx=0;entryDy=0;" parent="WIyWlLk6GJQsqaUBKTNV-1" source="V5XkKpPskYb6ydSUWr3m-91" target="V5XkKpPskYb6ydSUWr3m-22" edge="1">
          <mxGeometry relative="1" as="geometry">
            <Array as="points">
              <mxPoint x="-290" y="550" />
            </Array>
          </mxGeometry>
        </mxCell>
        <mxCell id="V5XkKpPskYb6ydSUWr3m-94" value="no" style="edgeLabel;html=1;align=center;verticalAlign=middle;resizable=0;points=[];" parent="V5XkKpPskYb6ydSUWr3m-93" vertex="1" connectable="0">
          <mxGeometry x="-0.8891" y="-2" relative="1" as="geometry">
            <mxPoint as="offset" />
          </mxGeometry>
        </mxCell>
        <mxCell id="V5XkKpPskYb6ydSUWr3m-95" style="edgeStyle=orthogonalEdgeStyle;rounded=0;orthogonalLoop=1;jettySize=auto;html=1;exitX=0;exitY=0.5;exitDx=0;exitDy=0;entryX=0.5;entryY=0;entryDx=0;entryDy=0;" parent="WIyWlLk6GJQsqaUBKTNV-1" source="V5XkKpPskYb6ydSUWr3m-91" target="V5XkKpPskYb6ydSUWr3m-97" edge="1">
          <mxGeometry relative="1" as="geometry">
            <mxPoint x="-660" y="739.7058823529412" as="targetPoint" />
          </mxGeometry>
        </mxCell>
        <mxCell id="V5XkKpPskYb6ydSUWr3m-96" value="yes" style="edgeLabel;html=1;align=center;verticalAlign=middle;resizable=0;points=[];" parent="V5XkKpPskYb6ydSUWr3m-95" vertex="1" connectable="0">
          <mxGeometry x="-0.6989" y="1" relative="1" as="geometry">
            <mxPoint as="offset" />
          </mxGeometry>
        </mxCell>
        <mxCell id="V5XkKpPskYb6ydSUWr3m-91" value="clikced" style="rhombus;whiteSpace=wrap;html=1;strokeWidth=2;rounded=1;arcSize=12;" parent="WIyWlLk6GJQsqaUBKTNV-1" vertex="1">
          <mxGeometry x="-330" y="700" width="80" height="80" as="geometry" />
        </mxCell>
        <mxCell id="V5XkKpPskYb6ydSUWr3m-99" value="" style="edgeStyle=orthogonalEdgeStyle;rounded=0;orthogonalLoop=1;jettySize=auto;html=1;" parent="WIyWlLk6GJQsqaUBKTNV-1" source="V5XkKpPskYb6ydSUWr3m-97" target="V5XkKpPskYb6ydSUWr3m-98" edge="1">
          <mxGeometry relative="1" as="geometry" />
        </mxCell>
        <mxCell id="V5XkKpPskYb6ydSUWr3m-97" value="display dash bord&lt;div&gt;&amp;nbsp;information&lt;/div&gt;" style="shape=parallelogram;perimeter=parallelogramPerimeter;whiteSpace=wrap;html=1;fixedSize=1;strokeWidth=2;rounded=1;arcSize=12;" parent="WIyWlLk6GJQsqaUBKTNV-1" vertex="1">
          <mxGeometry x="-740" y="790" width="160" height="60" as="geometry" />
        </mxCell>
        <mxCell id="V5XkKpPskYb6ydSUWr3m-100" style="edgeStyle=orthogonalEdgeStyle;rounded=0;orthogonalLoop=1;jettySize=auto;html=1;entryX=0.5;entryY=0;entryDx=0;entryDy=0;" parent="WIyWlLk6GJQsqaUBKTNV-1" source="V5XkKpPskYb6ydSUWr3m-98" target="V5XkKpPskYb6ydSUWr3m-102" edge="1">
          <mxGeometry relative="1" as="geometry">
            <mxPoint x="-830" y="960" as="targetPoint" />
          </mxGeometry>
        </mxCell>
        <mxCell id="V5XkKpPskYb6ydSUWr3m-101" value="yes" style="edgeLabel;html=1;align=center;verticalAlign=middle;resizable=0;points=[];" parent="V5XkKpPskYb6ydSUWr3m-100" vertex="1" connectable="0">
          <mxGeometry x="-0.7021" relative="1" as="geometry">
            <mxPoint as="offset" />
          </mxGeometry>
        </mxCell>
        <mxCell id="V5XkKpPskYb6ydSUWr3m-105" style="edgeStyle=orthogonalEdgeStyle;rounded=0;orthogonalLoop=1;jettySize=auto;html=1;entryX=1;entryY=0.5;entryDx=0;entryDy=0;" parent="WIyWlLk6GJQsqaUBKTNV-1" source="V5XkKpPskYb6ydSUWr3m-98" target="V5XkKpPskYb6ydSUWr3m-97" edge="1">
          <mxGeometry relative="1" as="geometry">
            <Array as="points">
              <mxPoint x="-520" y="960" />
              <mxPoint x="-520" y="820" />
            </Array>
          </mxGeometry>
        </mxCell>
        <mxCell id="V5XkKpPskYb6ydSUWr3m-98" value="if the user has points" style="rhombus;whiteSpace=wrap;html=1;strokeWidth=2;rounded=1;arcSize=12;" parent="WIyWlLk6GJQsqaUBKTNV-1" vertex="1">
          <mxGeometry x="-710" y="920" width="100" height="80" as="geometry" />
        </mxCell>
        <mxCell id="V5XkKpPskYb6ydSUWr3m-102" value="give reward" style="shape=parallelogram;perimeter=parallelogramPerimeter;whiteSpace=wrap;html=1;fixedSize=1;strokeWidth=2;rounded=1;arcSize=12;" parent="WIyWlLk6GJQsqaUBKTNV-1" vertex="1">
          <mxGeometry x="-910" y="1000" width="160" height="60" as="geometry" />
        </mxCell>
        <mxCell id="V5XkKpPskYb6ydSUWr3m-106" value="no" style="text;html=1;align=center;verticalAlign=middle;resizable=0;points=[];autosize=1;strokeColor=none;fillColor=none;" parent="WIyWlLk6GJQsqaUBKTNV-1" vertex="1">
          <mxGeometry x="-610" y="938" width="40" height="30" as="geometry" />
        </mxCell>
        <mxCell id="jnmov6up10s2OFLVytW6-0" value="display support" style="shape=parallelogram;perimeter=parallelogramPerimeter;whiteSpace=wrap;html=1;fixedSize=1;strokeWidth=2;rounded=1;arcSize=12;" vertex="1" parent="WIyWlLk6GJQsqaUBKTNV-1">
          <mxGeometry x="-500" y="1130" width="160" height="60" as="geometry" />
        </mxCell>
        <mxCell id="jnmov6up10s2OFLVytW6-1" style="edgeStyle=orthogonalEdgeStyle;rounded=0;orthogonalLoop=1;jettySize=auto;html=1;entryX=0.544;entryY=-0.033;entryDx=0;entryDy=0;entryPerimeter=0;" edge="1" parent="WIyWlLk6GJQsqaUBKTNV-1" source="V5XkKpPskYb6ydSUWr3m-80" target="jnmov6up10s2OFLVytW6-0">
          <mxGeometry relative="1" as="geometry" />
        </mxCell>
      </root>
    </mxGraphModel>
  </diagram>
</mxfile>
